<mxfile host="app.diagrams.net" modified="2023-07-15T21:06:57.117Z" agent="Mozilla/5.0 (Windows NT 10.0; Win64; x64) AppleWebKit/537.36 (KHTML, like Gecko) Chrome/112.0.0.0 YaBrowser/23.5.4.674 Yowser/2.5 Safari/537.36" etag="HYmhkWI1uUP9w1Ymbm9u" version="21.6.2" type="device">
  <diagram name="Страница 1" id="Gs4tDq5NouZkqfERdZO_">
    <mxGraphModel dx="1638" dy="3329" grid="1" gridSize="10" guides="1" tooltips="1" connect="1" arrows="1" fold="1" page="1" pageScale="1" pageWidth="827" pageHeight="1169" math="0" shadow="0">
      <root>
        <mxCell id="0" />
        <mxCell id="1" parent="0" />
        <mxCell id="DeakzWtA8X_5EcRu_IrN-372" value="" style="rounded=1;whiteSpace=wrap;html=1;dashed=1;dashPattern=12 12;glass=0;shadow=0;fillColor=#6d8764;strokeColor=#3A5431;fillStyle=cross-hatch;fontColor=#ffffff;" vertex="1" parent="1">
          <mxGeometry x="244.5" y="420" width="1220" height="510" as="geometry" />
        </mxCell>
        <mxCell id="DeakzWtA8X_5EcRu_IrN-344" value="" style="rounded=1;whiteSpace=wrap;html=1;fillColor=#f8cecc;strokeColor=#b85450;glass=0;fontStyle=1" vertex="1" parent="1">
          <mxGeometry x="1067" y="460" width="280" height="420" as="geometry" />
        </mxCell>
        <mxCell id="DeakzWtA8X_5EcRu_IrN-308" value="" style="rounded=1;whiteSpace=wrap;html=1;fillColor=#dae8fc;strokeColor=#6c8ebf;glass=0;" vertex="1" parent="1">
          <mxGeometry x="150" y="-230" width="460" height="380" as="geometry" />
        </mxCell>
        <mxCell id="DeakzWtA8X_5EcRu_IrN-309" value="Users" style="rounded=0;whiteSpace=wrap;html=1;" vertex="1" parent="1">
          <mxGeometry x="277.5" y="-210" width="245" height="50" as="geometry" />
        </mxCell>
        <mxCell id="DeakzWtA8X_5EcRu_IrN-310" value="User Info DB" style="shape=cylinder3;whiteSpace=wrap;html=1;boundedLbl=1;backgroundOutline=1;size=15;fillColor=#d5e8d4;strokeColor=#82b366;sketch=1;curveFitting=1;jiggle=2;" vertex="1" parent="1">
          <mxGeometry x="480" y="-115" width="110" height="205" as="geometry" />
        </mxCell>
        <mxCell id="DeakzWtA8X_5EcRu_IrN-321" value="" style="rounded=0;whiteSpace=wrap;html=1;" vertex="1" parent="1">
          <mxGeometry x="180" y="-142.5" width="190" height="265" as="geometry" />
        </mxCell>
        <mxCell id="DeakzWtA8X_5EcRu_IrN-311" value="Register" style="rounded=0;whiteSpace=wrap;html=1;fillColor=#ffe6cc;strokeColor=#d79b00;shadow=0;glass=0;sketch=1;curveFitting=1;jiggle=2;" vertex="1" parent="1">
          <mxGeometry x="190" y="-130" width="170" height="40" as="geometry" />
        </mxCell>
        <mxCell id="DeakzWtA8X_5EcRu_IrN-314" value="Auth" style="rounded=0;whiteSpace=wrap;html=1;fillColor=#ffe6cc;strokeColor=#d79b00;sketch=1;curveFitting=1;jiggle=2;" vertex="1" parent="1">
          <mxGeometry x="190" y="-70" width="170" height="40" as="geometry" />
        </mxCell>
        <mxCell id="DeakzWtA8X_5EcRu_IrN-315" value="Profile Info" style="rounded=0;whiteSpace=wrap;html=1;fillColor=#ffe6cc;strokeColor=#d79b00;sketch=1;curveFitting=1;jiggle=2;" vertex="1" parent="1">
          <mxGeometry x="190" y="-10" width="170" height="40" as="geometry" />
        </mxCell>
        <mxCell id="DeakzWtA8X_5EcRu_IrN-318" value="Edit" style="rounded=0;whiteSpace=wrap;html=1;fillColor=#ffe6cc;strokeColor=#d79b00;sketch=1;curveFitting=1;jiggle=2;" vertex="1" parent="1">
          <mxGeometry x="190" y="60" width="170" height="40" as="geometry" />
        </mxCell>
        <mxCell id="DeakzWtA8X_5EcRu_IrN-323" value="" style="shape=flexArrow;endArrow=classic;startArrow=classic;html=1;rounded=0;fillColor=#647687;strokeColor=#314354;startWidth=21.379310344827587;startSize=6.06896551724138;" edge="1" parent="1">
          <mxGeometry width="100" height="100" relative="1" as="geometry">
            <mxPoint x="380" y="-11.5" as="sourcePoint" />
            <mxPoint x="460" y="-13.5" as="targetPoint" />
            <Array as="points">
              <mxPoint x="420" y="-13" />
            </Array>
          </mxGeometry>
        </mxCell>
        <mxCell id="DeakzWtA8X_5EcRu_IrN-348" style="edgeStyle=orthogonalEdgeStyle;rounded=0;orthogonalLoop=1;jettySize=auto;html=1;exitX=0.5;exitY=1;exitDx=0;exitDy=0;" edge="1" parent="1" source="DeakzWtA8X_5EcRu_IrN-324">
          <mxGeometry relative="1" as="geometry">
            <mxPoint x="540.3333333333335" y="890" as="targetPoint" />
          </mxGeometry>
        </mxCell>
        <mxCell id="DeakzWtA8X_5EcRu_IrN-324" value="" style="rounded=1;whiteSpace=wrap;html=1;fillColor=#ffcc99;strokeColor=#36393d;glass=0;" vertex="1" parent="1">
          <mxGeometry x="405" y="460" width="280" height="420" as="geometry" />
        </mxCell>
        <mxCell id="DeakzWtA8X_5EcRu_IrN-326" value="Publication DB" style="shape=cylinder3;whiteSpace=wrap;html=1;boundedLbl=1;backgroundOutline=1;size=15;fillColor=#d5e8d4;strokeColor=#82b366;sketch=1;curveFitting=1;jiggle=2;" vertex="1" parent="1">
          <mxGeometry x="810" y="615" width="112" height="205" as="geometry" />
        </mxCell>
        <mxCell id="DeakzWtA8X_5EcRu_IrN-327" value="" style="rounded=0;whiteSpace=wrap;html=1;fillColor=default;strokeColor=default;" vertex="1" parent="1">
          <mxGeometry x="450" y="560" width="190" height="292.5" as="geometry" />
        </mxCell>
        <mxCell id="DeakzWtA8X_5EcRu_IrN-328" value="Create" style="rounded=0;whiteSpace=wrap;html=1;fillColor=#ffcc99;strokeColor=#36393d;shadow=0;glass=0;sketch=1;curveFitting=1;jiggle=2;" vertex="1" parent="1">
          <mxGeometry x="460" y="575" width="170" height="40" as="geometry" />
        </mxCell>
        <mxCell id="DeakzWtA8X_5EcRu_IrN-329" value="Edit" style="rounded=0;whiteSpace=wrap;html=1;fillColor=#ffcc99;strokeColor=#36393d;sketch=1;curveFitting=1;jiggle=2;" vertex="1" parent="1">
          <mxGeometry x="460" y="630" width="170" height="40" as="geometry" />
        </mxCell>
        <mxCell id="DeakzWtA8X_5EcRu_IrN-330" value="Delete" style="rounded=0;whiteSpace=wrap;html=1;fillColor=#ffcc99;strokeColor=#36393d;sketch=1;curveFitting=1;jiggle=2;" vertex="1" parent="1">
          <mxGeometry x="460" y="686.25" width="170" height="40" as="geometry" />
        </mxCell>
        <mxCell id="DeakzWtA8X_5EcRu_IrN-331" value="Upload photo" style="rounded=0;whiteSpace=wrap;html=1;fillColor=#ffcc99;strokeColor=#36393d;sketch=1;curveFitting=1;jiggle=2;" vertex="1" parent="1">
          <mxGeometry x="460" y="740" width="170" height="40" as="geometry" />
        </mxCell>
        <mxCell id="DeakzWtA8X_5EcRu_IrN-332" value="" style="endArrow=classic;startArrow=classic;html=1;rounded=0;startWidth=21.379310344827587;shape=arrow;strokeColor=#d79b00;fillColor=#ffe6cc;startSize=6.06896551724138;entryX=0;entryY=0.5;entryDx=0;entryDy=0;entryPerimeter=0;" edge="1" parent="1" target="DeakzWtA8X_5EcRu_IrN-326">
          <mxGeometry width="100" height="100" relative="1" as="geometry">
            <mxPoint x="690" y="718" as="sourcePoint" />
            <mxPoint x="730" y="716.5" as="targetPoint" />
            <Array as="points">
              <mxPoint x="690" y="717" />
            </Array>
          </mxGeometry>
        </mxCell>
        <mxCell id="DeakzWtA8X_5EcRu_IrN-333" value="Publication" style="rounded=0;whiteSpace=wrap;html=1;" vertex="1" parent="1">
          <mxGeometry x="420" y="490" width="245" height="50" as="geometry" />
        </mxCell>
        <mxCell id="DeakzWtA8X_5EcRu_IrN-335" value="Repost" style="rounded=0;whiteSpace=wrap;html=1;fillColor=#ffcc99;strokeColor=#36393d;sketch=1;curveFitting=1;jiggle=2;" vertex="1" parent="1">
          <mxGeometry x="460" y="790" width="170" height="40" as="geometry" />
        </mxCell>
        <mxCell id="DeakzWtA8X_5EcRu_IrN-336" value="" style="endArrow=classic;startArrow=classic;html=1;rounded=0;startWidth=21.379310344827587;shape=arrow;strokeColor=#82b366;fillColor=#d5e8d4;startSize=6.06896551724138;" edge="1" parent="1">
          <mxGeometry width="100" height="100" relative="1" as="geometry">
            <mxPoint x="930" y="716.04" as="sourcePoint" />
            <mxPoint x="1060" y="716.04" as="targetPoint" />
            <Array as="points">
              <mxPoint x="958" y="712.4599999999999" />
            </Array>
          </mxGeometry>
        </mxCell>
        <mxCell id="DeakzWtA8X_5EcRu_IrN-337" value="" style="rounded=0;whiteSpace=wrap;html=1;fillColor=default;strokeColor=default;" vertex="1" parent="1">
          <mxGeometry x="1112" y="570" width="190" height="292.5" as="geometry" />
        </mxCell>
        <mxCell id="DeakzWtA8X_5EcRu_IrN-338" value="Show list" style="rounded=0;whiteSpace=wrap;html=1;fillColor=#ffcc99;strokeColor=#36393d;shadow=0;glass=0;sketch=1;curveFitting=1;jiggle=2;" vertex="1" parent="1">
          <mxGeometry x="1122" y="585" width="170" height="40" as="geometry" />
        </mxCell>
        <mxCell id="DeakzWtA8X_5EcRu_IrN-339" value="Show single" style="rounded=0;whiteSpace=wrap;html=1;fillColor=#ffcc99;strokeColor=#36393d;sketch=1;curveFitting=1;jiggle=2;" vertex="1" parent="1">
          <mxGeometry x="1122" y="640" width="170" height="40" as="geometry" />
        </mxCell>
        <mxCell id="DeakzWtA8X_5EcRu_IrN-340" value="Pagination" style="rounded=0;whiteSpace=wrap;html=1;fillColor=#ffcc99;strokeColor=#36393d;sketch=1;curveFitting=1;jiggle=2;" vertex="1" parent="1">
          <mxGeometry x="1122" y="696.25" width="170" height="40" as="geometry" />
        </mxCell>
        <mxCell id="DeakzWtA8X_5EcRu_IrN-341" value="Sorting" style="rounded=0;whiteSpace=wrap;html=1;fillColor=#ffcc99;strokeColor=#36393d;sketch=1;curveFitting=1;jiggle=2;" vertex="1" parent="1">
          <mxGeometry x="1122" y="750" width="170" height="40" as="geometry" />
        </mxCell>
        <mxCell id="DeakzWtA8X_5EcRu_IrN-342" value="Search" style="rounded=0;whiteSpace=wrap;html=1;fillColor=#ffcc99;strokeColor=#36393d;sketch=1;curveFitting=1;jiggle=2;" vertex="1" parent="1">
          <mxGeometry x="1122" y="800" width="170" height="40" as="geometry" />
        </mxCell>
        <mxCell id="DeakzWtA8X_5EcRu_IrN-345" value="Blog" style="rounded=0;whiteSpace=wrap;html=1;" vertex="1" parent="1">
          <mxGeometry x="1084.5" y="490" width="245" height="50" as="geometry" />
        </mxCell>
        <mxCell id="DeakzWtA8X_5EcRu_IrN-347" value="" style="shape=flexArrow;endArrow=classic;html=1;rounded=0;exitX=0.25;exitY=1;exitDx=0;exitDy=0;entryX=0.5;entryY=0;entryDx=0;entryDy=0;fillColor=#dae8fc;strokeColor=#6c8ebf;" edge="1" parent="1" source="DeakzWtA8X_5EcRu_IrN-308" target="DeakzWtA8X_5EcRu_IrN-324">
          <mxGeometry width="50" height="50" relative="1" as="geometry">
            <mxPoint x="340" y="640" as="sourcePoint" />
            <mxPoint x="390" y="590" as="targetPoint" />
          </mxGeometry>
        </mxCell>
        <mxCell id="DeakzWtA8X_5EcRu_IrN-349" value="" style="shape=flexArrow;endArrow=classic;html=1;rounded=0;fillColor=#f8cecc;strokeColor=#b85450;exitX=0.5;exitY=0;exitDx=0;exitDy=0;entryX=0.25;entryY=1;entryDx=0;entryDy=0;" edge="1" parent="1" source="DeakzWtA8X_5EcRu_IrN-344" target="DeakzWtA8X_5EcRu_IrN-352">
          <mxGeometry width="50" height="50" relative="1" as="geometry">
            <mxPoint x="1200" y="450" as="sourcePoint" />
            <mxPoint x="1280" y="360" as="targetPoint" />
            <Array as="points" />
          </mxGeometry>
        </mxCell>
        <mxCell id="DeakzWtA8X_5EcRu_IrN-352" value="" style="rounded=1;whiteSpace=wrap;html=1;fillColor=#b0e3e6;strokeColor=#0e8088;glass=0;" vertex="1" parent="1">
          <mxGeometry x="1090" y="-330" width="460" height="380" as="geometry" />
        </mxCell>
        <mxCell id="DeakzWtA8X_5EcRu_IrN-353" value="Reactions" style="rounded=0;whiteSpace=wrap;html=1;" vertex="1" parent="1">
          <mxGeometry x="1219.5" y="-310" width="245" height="50" as="geometry" />
        </mxCell>
        <mxCell id="DeakzWtA8X_5EcRu_IrN-354" value="Reactions Db" style="shape=cylinder3;whiteSpace=wrap;html=1;boundedLbl=1;backgroundOutline=1;size=15;fillColor=#d5e8d4;strokeColor=#82b366;sketch=1;curveFitting=1;jiggle=2;" vertex="1" parent="1">
          <mxGeometry x="1422" y="-215" width="110" height="205" as="geometry" />
        </mxCell>
        <mxCell id="DeakzWtA8X_5EcRu_IrN-355" value="" style="rounded=0;whiteSpace=wrap;html=1;" vertex="1" parent="1">
          <mxGeometry x="1122" y="-242.5" width="190" height="265" as="geometry" />
        </mxCell>
        <mxCell id="DeakzWtA8X_5EcRu_IrN-356" value="Like" style="rounded=0;whiteSpace=wrap;html=1;fillColor=#ffe6cc;strokeColor=#d79b00;shadow=0;glass=0;sketch=1;curveFitting=1;jiggle=2;" vertex="1" parent="1">
          <mxGeometry x="1132" y="-210" width="170" height="40" as="geometry" />
        </mxCell>
        <mxCell id="DeakzWtA8X_5EcRu_IrN-357" value="Comment" style="rounded=0;whiteSpace=wrap;html=1;fillColor=#ffe6cc;strokeColor=#d79b00;sketch=1;curveFitting=1;jiggle=2;" vertex="1" parent="1">
          <mxGeometry x="1132" y="-130" width="170" height="40" as="geometry" />
        </mxCell>
        <mxCell id="DeakzWtA8X_5EcRu_IrN-358" value="Count" style="rounded=0;whiteSpace=wrap;html=1;fillColor=#ffe6cc;strokeColor=#d79b00;sketch=1;curveFitting=1;jiggle=2;" vertex="1" parent="1">
          <mxGeometry x="1132" y="-52.5" width="170" height="40" as="geometry" />
        </mxCell>
        <mxCell id="DeakzWtA8X_5EcRu_IrN-360" value="" style="shape=flexArrow;endArrow=classic;startArrow=classic;html=1;rounded=0;fillColor=#647687;strokeColor=#314354;startWidth=21.379310344827587;startSize=6.06896551724138;" edge="1" parent="1">
          <mxGeometry width="100" height="100" relative="1" as="geometry">
            <mxPoint x="1322" y="-111.5" as="sourcePoint" />
            <mxPoint x="1402" y="-113.5" as="targetPoint" />
            <Array as="points">
              <mxPoint x="1362" y="-113" />
            </Array>
          </mxGeometry>
        </mxCell>
        <mxCell id="DeakzWtA8X_5EcRu_IrN-361" value="" style="shape=flexArrow;endArrow=classic;html=1;rounded=0;exitX=1;exitY=0.25;exitDx=0;exitDy=0;entryX=0;entryY=0.5;entryDx=0;entryDy=0;fillColor=#dae8fc;strokeColor=#6c8ebf;" edge="1" parent="1" source="DeakzWtA8X_5EcRu_IrN-308" target="DeakzWtA8X_5EcRu_IrN-352">
          <mxGeometry width="50" height="50" relative="1" as="geometry">
            <mxPoint x="1040" y="480" as="sourcePoint" />
            <mxPoint x="1090" y="430" as="targetPoint" />
            <Array as="points" />
          </mxGeometry>
        </mxCell>
        <mxCell id="DeakzWtA8X_5EcRu_IrN-362" value="" style="rounded=1;whiteSpace=wrap;html=1;fillColor=#e1d5e7;strokeColor=#9673a6;glass=0;" vertex="1" parent="1">
          <mxGeometry x="1650" y="195" width="460" height="380" as="geometry" />
        </mxCell>
        <mxCell id="DeakzWtA8X_5EcRu_IrN-363" value="Notifications" style="rounded=0;whiteSpace=wrap;html=1;" vertex="1" parent="1">
          <mxGeometry x="1779.5" y="215" width="245" height="50" as="geometry" />
        </mxCell>
        <mxCell id="DeakzWtA8X_5EcRu_IrN-364" value="Notifications DB" style="shape=cylinder3;whiteSpace=wrap;html=1;boundedLbl=1;backgroundOutline=1;size=15;fillColor=#d5e8d4;strokeColor=#82b366;sketch=1;curveFitting=1;jiggle=2;" vertex="1" parent="1">
          <mxGeometry x="1982" y="310" width="110" height="205" as="geometry" />
        </mxCell>
        <mxCell id="DeakzWtA8X_5EcRu_IrN-365" value="" style="rounded=0;whiteSpace=wrap;html=1;" vertex="1" parent="1">
          <mxGeometry x="1682" y="282.5" width="190" height="265" as="geometry" />
        </mxCell>
        <mxCell id="DeakzWtA8X_5EcRu_IrN-366" value="Email notifs" style="rounded=0;whiteSpace=wrap;html=1;fillColor=#ffe6cc;strokeColor=#d79b00;shadow=0;glass=0;sketch=1;curveFitting=1;jiggle=2;" vertex="1" parent="1">
          <mxGeometry x="1692" y="340" width="170" height="40" as="geometry" />
        </mxCell>
        <mxCell id="DeakzWtA8X_5EcRu_IrN-367" value="Subscription" style="rounded=0;whiteSpace=wrap;html=1;fillColor=#ffe6cc;strokeColor=#d79b00;sketch=1;curveFitting=1;jiggle=2;" vertex="1" parent="1">
          <mxGeometry x="1692" y="450" width="170" height="40" as="geometry" />
        </mxCell>
        <mxCell id="DeakzWtA8X_5EcRu_IrN-369" value="" style="shape=flexArrow;endArrow=classic;startArrow=classic;html=1;rounded=0;fillColor=#647687;strokeColor=#314354;startWidth=21.379310344827587;startSize=6.06896551724138;" edge="1" parent="1">
          <mxGeometry width="100" height="100" relative="1" as="geometry">
            <mxPoint x="1882" y="413.5" as="sourcePoint" />
            <mxPoint x="1962" y="411.5" as="targetPoint" />
            <Array as="points">
              <mxPoint x="1922" y="412" />
            </Array>
          </mxGeometry>
        </mxCell>
        <mxCell id="DeakzWtA8X_5EcRu_IrN-370" value="" style="shape=flexArrow;endArrow=classic;html=1;rounded=0;exitX=1;exitY=0.5;exitDx=0;exitDy=0;entryX=0;entryY=0.5;entryDx=0;entryDy=0;fillColor=#dae8fc;strokeColor=#6c8ebf;" edge="1" parent="1" source="DeakzWtA8X_5EcRu_IrN-308" target="DeakzWtA8X_5EcRu_IrN-362">
          <mxGeometry width="50" height="50" relative="1" as="geometry">
            <mxPoint x="1340" y="310" as="sourcePoint" />
            <mxPoint x="1390" y="260" as="targetPoint" />
          </mxGeometry>
        </mxCell>
        <mxCell id="DeakzWtA8X_5EcRu_IrN-371" value="" style="shape=flexArrow;endArrow=classic;html=1;rounded=0;exitX=1;exitY=0.5;exitDx=0;exitDy=0;entryX=0;entryY=0.5;entryDx=0;entryDy=0;fillColor=#f8cecc;strokeColor=#b85450;" edge="1" parent="1" source="DeakzWtA8X_5EcRu_IrN-344" target="DeakzWtA8X_5EcRu_IrN-362">
          <mxGeometry width="50" height="50" relative="1" as="geometry">
            <mxPoint x="1340" y="310" as="sourcePoint" />
            <mxPoint x="1390" y="260" as="targetPoint" />
          </mxGeometry>
        </mxCell>
        <mxCell id="DeakzWtA8X_5EcRu_IrN-374" style="edgeStyle=orthogonalEdgeStyle;rounded=0;orthogonalLoop=1;jettySize=auto;html=1;entryX=0.5;entryY=0;entryDx=0;entryDy=0;" edge="1" parent="1" source="DeakzWtA8X_5EcRu_IrN-373" target="DeakzWtA8X_5EcRu_IrN-308">
          <mxGeometry relative="1" as="geometry" />
        </mxCell>
        <mxCell id="DeakzWtA8X_5EcRu_IrN-375" style="edgeStyle=orthogonalEdgeStyle;rounded=0;orthogonalLoop=1;jettySize=auto;html=1;exitX=0.5;exitY=1;exitDx=0;exitDy=0;entryX=0.573;entryY=-0.002;entryDx=0;entryDy=0;entryPerimeter=0;" edge="1" parent="1" source="DeakzWtA8X_5EcRu_IrN-373" target="DeakzWtA8X_5EcRu_IrN-352">
          <mxGeometry relative="1" as="geometry" />
        </mxCell>
        <mxCell id="DeakzWtA8X_5EcRu_IrN-376" style="edgeStyle=orthogonalEdgeStyle;rounded=0;orthogonalLoop=1;jettySize=auto;html=1;exitX=0.25;exitY=1;exitDx=0;exitDy=0;entryX=0.5;entryY=0;entryDx=0;entryDy=0;" edge="1" parent="1" source="DeakzWtA8X_5EcRu_IrN-373" target="DeakzWtA8X_5EcRu_IrN-372">
          <mxGeometry relative="1" as="geometry" />
        </mxCell>
        <mxCell id="DeakzWtA8X_5EcRu_IrN-377" style="edgeStyle=orthogonalEdgeStyle;rounded=0;orthogonalLoop=1;jettySize=auto;html=1;exitX=1;exitY=0.5;exitDx=0;exitDy=0;" edge="1" parent="1" source="DeakzWtA8X_5EcRu_IrN-373" target="DeakzWtA8X_5EcRu_IrN-362">
          <mxGeometry relative="1" as="geometry" />
        </mxCell>
        <mxCell id="DeakzWtA8X_5EcRu_IrN-373" value="API" style="rounded=1;whiteSpace=wrap;html=1;fillColor=#f5f5f5;strokeColor=#666666;fillStyle=zigzag-line;fontSize=20;fontStyle=1;gradientColor=#b3b3b3;" vertex="1" parent="1">
          <mxGeometry x="690" y="-810" width="350" height="190" as="geometry" />
        </mxCell>
      </root>
    </mxGraphModel>
  </diagram>
</mxfile>
